<svg width="86" height="22" viewBox="0 0 86 22" fill="none" xmlns="http://www.w3.org/2000/svg">
<path d="M13.3952 18.9998H16.3521L9.85201 0.996831H6.8328L0.332764 18.9998H3.23969L4.88653 14.1341H11.7484L13.3952 18.9998ZM8.28002 3.99109H8.35488L11.0372 11.8884H5.59767L8.28002 3.99109ZM18.0114 18.9998H20.7062V11.1399C20.7062 9.28095 21.7791 8.12067 23.5133 8.12067C24.0373 8.12067 24.5114 8.18305 24.7235 8.27038V5.76269C24.5239 5.72526 24.187 5.66288 23.8003 5.66288C22.2532 5.66288 21.0805 6.57364 20.6438 8.10819H20.5814V5.87498H18.0114V18.9998ZM27.1813 2.76843V5.87498H25.2725V8.00839H27.1813V15.5439C27.1813 18.0766 28.2168 19.0871 30.8742 19.0871C31.4731 19.0871 32.0719 19.0372 32.3713 18.9624V16.829C32.1967 16.8664 31.76 16.8913 31.4855 16.8913C30.3876 16.8913 29.8886 16.3798 29.8886 15.2445V8.00839H32.3838V5.87498H29.8886V2.76843H27.1813ZM34.6919 18.9998H37.3867V5.87498H34.6919V18.9998ZM36.0393 3.95366C36.9126 3.95366 37.6113 3.26748 37.6113 2.4191C37.6113 1.55825 36.9126 0.87207 36.0393 0.87207C35.1785 0.87207 34.4798 1.55825 34.4798 2.4191C34.4798 3.26748 35.1785 3.95366 36.0393 3.95366ZM66.3936 7.80877C68.2775 7.80877 69.5501 9.21856 69.6124 11.2272H63.05C63.1873 9.24352 64.5097 7.80877 66.3936 7.80877ZM69.6 15.1447C69.2382 16.2925 68.1028 17.066 66.5683 17.066C64.4099 17.066 63.0375 15.5564 63.0375 13.2733V13.1111H72.3073V12.1879C72.3073 8.208 70.0366 5.63793 66.3936 5.63793C62.6882 5.63793 60.3178 8.38267 60.3178 12.4998C60.3178 16.6418 62.6508 19.2493 66.5059 19.2493C69.5126 19.2493 71.7833 17.5401 72.1576 15.1447H69.6ZM74.4032 18.9998H77.0981V11.352C77.0981 9.31837 78.3207 7.97096 80.2171 7.97096C82.0885 7.97096 83.0117 9.05638 83.0117 11.0276V18.9998H85.719V10.5036C85.719 7.49687 84.0597 5.65041 81.1653 5.65041C79.1442 5.65041 77.7468 6.57364 77.0357 8.07077H76.9733V5.87498H74.4032V18.9998Z" fill="#F8F6F6"/>
<path d="M42.7621 6.37227C41.2884 10.0083 51.3943 6.36714 54.4336 6.36714C54.7312 6.36714 55.6027 6.26174 55.3264 6.37227C54.8709 6.55446 54.3485 7.07615 53.9923 7.39847C52.4542 8.79006 51.6524 10.6905 50.2929 12.2011C48.7883 13.8728 47.2058 15.7009 45.7122 17.3811C45.4695 17.6542 45.2051 17.8372 44.975 18.1184C44.8499 18.2712 43.2372 18.9286 43.5004 18.8557C44.6591 18.5348 47.9498 17.7502 49.1538 17.6554C50.357 17.5606 51.5891 17.6348 52.7968 17.6348C52.9967 17.6348 57.4222 19.7663 57.5089 19.593" stroke="#30FFB4" stroke-width="4.42373" stroke-linecap="round"/>
</svg>
